<?xml version="1.0" encoding="UTF-8"?>
<svg xmlns="http://www.w3.org/2000/svg" width="342" height="107" viewBox="0 0 342 107" fill="none">
  <path d="M156.796 43.6495C154.926 41.3576 151.853 40.5242 148.158 40.5242H140.321V41.7446C142.428 41.9678 142.71 42.2952 142.71 45.2419V59.3205C142.71 62.2969 142.428 62.5946 140.098 62.8625C138.451 62.6392 138.005 62.3713 137.041 59.2907C135.868 55.5404 134.592 51.1799 133.271 46.879L131.267 40.1075L129.649 40.5838L123.534 59.3354C122.539 62.3862 122.154 62.6541 120.328 62.8773V64.0977H127.23V62.8773C125.018 62.5797 124.84 62.3267 125.33 60.3027C125.671 58.9038 126.131 57.2072 126.339 56.5375H132.039C132.425 57.609 133.003 59.633 133.315 60.6301C133.864 62.3565 133.597 62.6243 131.757 62.8773V64.0977H147.059C150.785 64.0977 153.694 63.175 155.861 61.0766C157.968 59.0526 159.319 55.9273 159.319 51.4329C159.319 48.0398 158.25 45.4651 156.796 43.6942M126.814 54.6921C127.616 51.9687 128.373 49.4238 129.204 46.7748H129.308L131.519 54.6921H126.814ZM148.736 62.4755C147.044 62.4755 146.733 61.5975 146.733 59.2312V43.9472C146.733 42.8756 146.837 42.5036 147.074 42.325C147.282 42.1464 147.668 41.9976 148.321 41.9976C149.775 41.9976 151.364 42.5185 152.536 43.9174C153.946 45.5098 154.777 48.1886 154.777 51.9836C154.777 58.9782 152.076 62.4755 148.736 62.4755Z" fill="white"></path>
  <path d="M200.447 58.7847L200.21 45.7032C200.136 42.2059 200.314 42.0124 202.659 41.7594V40.5093H196.173L190.548 56.3886L185.056 40.5093H178.659V41.7594C181.182 42.0124 181.39 42.3845 181.152 46.7301L180.662 54.3944C180.484 57.7132 180.247 59.7371 180.069 60.8384C179.861 62.1629 179.312 62.6392 177.842 62.8178C176.195 62.5945 175.75 62.3267 174.785 59.246C173.612 55.4957 172.336 51.1352 171.015 46.8343L169.011 40.0629L167.393 40.5391L161.278 59.2907C160.284 62.3415 159.898 62.6094 158.072 62.8326V64.053H164.974V62.8326C162.762 62.535 162.584 62.282 163.074 60.258C163.416 58.8591 163.876 57.1625 164.069 56.5077H169.768C170.154 57.5792 170.733 59.6032 171.045 60.6003C171.594 62.3267 171.327 62.5945 169.486 62.8475V64.0679H185.234V62.8475C183.156 62.6689 182.473 62.1778 182.325 60.7491C182.221 59.7223 182.251 57.8769 182.355 54.8558L182.696 45.2121H182.77L188.677 63.666H189.82L196.277 44.6615H196.41V58.8144C196.41 62.4308 196.306 62.6094 193.917 62.8624V64.0828H202.926V62.8624C200.64 62.5648 200.507 62.4159 200.403 58.8144M164.558 54.6921C165.36 51.9686 166.117 49.4238 166.948 46.7747H167.052L169.263 54.6921H164.573H164.558Z" fill="white"></path>
  <path d="M205.524 57.0881C206.206 59.0823 208.017 62.9517 211.045 62.9517C213.049 62.9517 214.221 61.2998 214.221 59.0526C214.221 56.8053 212.945 55.2874 210.629 53.9628C207.839 52.4151 205.108 50.2721 205.108 46.7747C205.108 43.2774 207.631 40.0629 212.158 40.0629C213.88 40.0629 215.438 40.5391 216.477 40.9111C216.581 42.3101 216.819 43.8578 217.13 46.1497L215.928 46.4027C215.201 44.1108 214.206 41.6106 211.713 41.6106C209.947 41.6106 208.774 43.1881 208.774 45.2121C208.774 47.0873 210.051 48.4118 212.366 49.6768C215.542 51.3733 218.036 53.4717 218.036 57.2667C218.036 61.4337 214.993 64.4846 210.466 64.4846C209.427 64.4846 208.359 64.306 207.498 64.0381C206.637 63.7851 205.91 63.4875 205.316 63.1898C205.034 62.1927 204.692 59.7223 204.351 57.4453L205.524 57.0732V57.0881Z" fill="white"></path>
  <path d="M241.338 46.7748C240.166 42.9054 238.548 41.6255 236.5 41.6255C233.086 41.6255 230.904 46.4176 230.904 51.8645C230.904 58.4573 233.294 62.9517 236.5 62.9517C238.919 62.9517 240.27 60.7343 241.888 57.5793L243.134 57.8769C242.748 59.4246 242.125 62.2672 241.62 63.6661C240.789 63.9191 238.548 64.5144 236.574 64.5144C229.049 64.5144 226.288 58.4275 226.288 52.6532C226.288 45.2865 230.578 40.0927 237.301 40.0927C239.379 40.0927 241.235 40.5689 242.066 40.7921C242.274 43.0393 242.407 44.5424 242.585 46.5813L241.338 46.8045V46.7748Z" fill="white"></path>
  <path d="M253.732 40.0778C258.749 40.0778 262.504 44.8698 262.504 51.9836C262.504 59.7967 258.63 64.5144 253.287 64.5144C247.943 64.5144 244.307 59.3503 244.307 52.43C244.307 46.5367 247.171 40.0927 253.702 40.0927H253.732V40.0778ZM253.108 41.6255C250.481 41.6255 248.923 45.5247 248.923 51.5669C248.923 57.9067 250.481 62.9517 253.865 62.9517C256.418 62.9517 257.947 59.6032 257.947 53.1146C257.947 45.9265 256.389 41.6255 253.153 41.6255H253.123H253.108Z" fill="white"></path>
  <path d="M329.369 55.1088C329.369 54.1861 329.295 53.8587 328.953 53.0104C328.063 50.8376 326.92 48.516 325.05 44.468C324.011 42.2208 323.699 41.9678 322.111 41.7446V40.5243H330.542V41.7446C328.612 41.9976 328.508 42.2655 329.057 43.59C330.126 46.2093 331.343 49.0071 332.471 51.4032C333.332 49.4089 334.816 46.0604 335.573 43.7091C336.063 42.3399 335.915 41.9827 333.673 41.7595V40.5391H340.783V41.7595C338.957 42.0125 338.571 42.3101 337.503 44.4532C336.286 46.8492 335.262 48.8732 333.985 52.0431C333.495 53.2634 333.391 53.4718 333.391 54.7665V59.3354C333.391 62.3565 333.629 62.6541 336.286 62.8774V64.0977H326.579V62.8774C329.102 62.6541 329.339 62.3565 329.339 59.3354V55.1386L329.369 55.1088Z" fill="white"></path>
  <path d="M318.861 40.5093H304.953C304.879 42.2208 304.731 44.3043 304.642 46.4771H305.888C306.23 44.8252 306.645 43.7834 307.061 43.2328C307.551 42.5631 308.337 42.0868 309.851 42.0868H311.024V59.3204C311.024 62.3118 310.712 62.5945 308.159 62.8178V64.0381H318.074V62.8178C315.343 62.5945 315.076 62.2969 315.076 59.3204V42.0868H316.426C317.599 42.0868 318.504 42.3398 318.979 43.0095C319.499 43.6048 319.87 44.6317 320.256 46.4771L321.503 46.4027C321.384 44.3638 321.28 42.1017 321.221 40.5093H318.875H318.861Z" fill="white"></path>
  <path d="M295.929 40.5093V41.7594C297.903 41.8636 298.764 42.4589 298.927 43.709C299.061 44.8549 299.239 46.6557 299.239 49.6768V56.6417H299.165L288.627 40.5093H275.565V41.7297C277.569 41.8339 278.267 42.3994 278.43 43.6048C278.563 44.7805 278.741 46.5217 278.741 49.4982V53.2485C278.741 58.8889 277.287 61.9397 274.007 61.9397C270.727 61.9397 269.406 59.2163 269.406 54.0224V45.2121C269.406 42.2208 269.688 41.938 271.855 41.7148V40.4944H262.801V41.7148C265.086 41.938 265.354 42.2357 265.354 45.2121V54.5284C265.354 58.6954 265.977 61.0468 267.565 62.5945C269.02 64.0232 270.949 64.4697 272.775 64.4697C274.957 64.4697 276.99 63.547 278.296 61.8951C279.959 59.7967 280.404 56.7012 280.404 53.0848V49.4684C280.404 46.4027 280.582 44.7508 280.716 43.5751C280.849 42.3547 281.621 41.8041 283.09 41.6999C284.337 41.8041 285.064 42.1017 285.643 42.9947C286.192 43.8429 286.192 44.5424 286.192 46.9682V54.8856C286.192 57.8769 286.014 59.6776 285.881 60.7789C285.747 62.1034 284.99 62.6987 283.491 62.7731V64.0232H291.165V62.7731C289.191 62.669 288.33 62.0737 288.166 60.7789C288.033 59.6776 287.855 57.862 287.855 54.8856V46.6706H287.929L298.838 64.2762H300.872V49.647C300.872 46.6259 301.05 44.8252 301.183 43.6792C301.317 42.4291 302.044 41.8041 303.528 41.7297V40.4796H295.855L295.929 40.5093Z" fill="white"></path>
  <path d="M340.427 28.1571H120.387C119.808 28.1571 119.259 28.5589 119.17 29.1393C119.051 29.8834 119.615 30.5234 120.328 30.5234H340.442C341.095 30.5234 341.629 29.9876 341.614 29.3179C341.614 28.678 341.08 28.1571 340.442 28.1571" fill="white"></path>
  <path d="M236.515 76.1523H233.843V78.3548H236.515C238.207 78.3548 238.4 77.7298 238.4 77.2536C238.4 76.7773 238.207 76.1523 236.515 76.1523Z" fill="white"></path>
  <path d="M263.097 76.1523H260.708V81.6438H263.097C265.22 81.6438 265.977 80.9295 265.977 78.9055C265.977 76.8815 265.22 76.1672 263.097 76.1672" fill="white"></path>
  <path d="M197.598 76.1523C195.965 76.1523 194.288 77.1791 194.288 78.8906C194.288 80.6021 195.965 81.6289 197.598 81.6289C199.23 81.6289 200.908 80.6021 200.908 78.8906C200.908 77.1791 199.23 76.1523 197.598 76.1523Z" fill="white"></path>
  <path d="M222.414 76.1523C220.782 76.1523 219.104 77.1791 219.104 78.8906C219.104 80.6021 220.782 81.6289 222.414 81.6289C224.047 81.6289 225.724 80.6021 225.724 78.8906C225.724 77.1791 224.047 76.1523 222.414 76.1523Z" fill="white"></path>
  <path d="M247.825 79.7538H250.392C250.303 79.5454 249.309 77.328 249.175 77.0601C249.042 77.328 247.929 79.5454 247.825 79.7538Z" fill="white"></path>
  <path d="M276.471 76.1523C274.838 76.1523 273.161 77.1791 273.161 78.8906C273.161 80.6021 274.838 81.6289 276.471 81.6289C278.103 81.6289 279.78 80.6021 279.78 78.8906C279.78 77.1791 278.103 76.1523 276.471 76.1523Z" fill="white"></path>
  <path d="M340.798 75.7207H289.547C288.27 72.774 285.346 70.7054 281.947 70.7054H179.193C175.794 70.7054 172.855 72.774 171.594 75.7207H120.343C119.69 75.7207 119.17 76.2565 119.17 76.8964C119.17 77.5363 119.69 78.0721 120.343 78.0721H170.97C170.941 78.3846 170.911 78.6971 170.911 79.0097C170.911 83.6083 174.622 87.3288 179.208 87.3288H281.962C286.549 87.3288 290.259 83.6083 290.259 79.0097C290.259 78.6971 290.244 78.3697 290.2 78.0721H340.827C341.481 78.0721 342 77.5363 342 76.8964C342 76.2565 341.466 75.7207 340.827 75.7207M189.034 81.8819C189.034 81.8819 188.9 82.001 188.856 82.0308H188.677L188.247 82.2093C187.564 82.5516 186.139 83.2809 184.596 83.2809C182.013 83.2809 179.416 81.9266 179.416 78.9055C179.416 75.8844 182.013 74.5301 184.596 74.5301C185.457 74.5301 186.317 74.6641 187.253 74.9319L188.143 75.2445L188.366 75.3189C188.366 75.3189 188.47 75.2296 188.499 75.1849L188.574 75.0808L188.945 75.3784L187.609 77.447L187.386 77.2833L187.356 77.2536V77.2238C187.356 77.2238 187.327 77.075 187.327 77.0303C187.253 76.6285 185.679 76.0779 184.625 76.0779C183.052 76.0779 181.36 76.9559 181.36 78.8757C181.36 80.7955 183.052 81.6736 184.625 81.6736C185.946 81.6736 187.713 80.989 187.713 80.483L187.668 80.3342L187.638 80.2449L187.995 80.0365L189.123 81.8522L189.078 81.8968L189.034 81.8819ZM197.598 83.2809C195.06 83.2809 192.373 81.748 192.373 78.9055C192.373 76.063 195.06 74.5301 197.598 74.5301C200.136 74.5301 202.822 76.063 202.822 78.9055C202.822 81.748 200.121 83.2809 197.598 83.2809ZM214.577 83.5339H214.132V83.4446C214.132 83.2362 214.043 83.1767 213.672 83.1767H206.013V82.7302H206.102C206.503 82.7302 206.503 82.5963 206.503 82.5219V75.2742C206.503 75.2742 206.503 75.0659 206.102 75.0659H206.013V74.6194H208.923V75.0659H208.833C208.477 75.0659 208.477 75.2147 208.477 75.2742V81.5396H213.687C213.969 81.5396 214.147 81.4057 214.147 81.2122V81.1229H214.592V83.519L214.577 83.5339ZM222.414 83.2809C219.876 83.2809 217.19 81.748 217.19 78.9055C217.19 76.063 219.891 74.5301 222.414 74.5301C224.938 74.5301 227.639 76.063 227.639 78.9055C227.639 81.748 224.952 83.2809 222.414 83.2809ZM240.76 83.1767H237.613V82.7302H237.702C237.88 82.7302 237.969 82.6558 237.969 82.6409C237.969 82.5665 237.88 82.4475 237.732 82.2242C237.732 82.2242 236.055 79.8282 236.01 79.7687H233.858V82.5219C233.858 82.6112 233.858 82.7302 234.244 82.7302H234.333V83.1767H231.409V82.7302H231.498C231.884 82.7302 231.884 82.5814 231.884 82.5219V75.2742C231.884 75.2742 231.884 75.0659 231.498 75.0659H231.409V74.6194H236.945C239.246 74.6194 240.403 75.4826 240.403 77.194C240.403 78.4888 239.646 79.2924 238.162 79.605C238.474 80.0514 240.21 82.5516 240.21 82.5516C240.329 82.7302 240.522 82.7451 240.685 82.7451H240.774V83.1916L240.76 83.1767ZM254.459 83.1767H251.491V82.7302H251.58C251.58 82.7302 251.758 82.6856 251.758 82.626L251.639 82.254C251.639 82.254 251.105 81.1973 251.06 81.1229H247.275C247.216 81.2569 246.726 82.2093 246.726 82.2093L246.578 82.6558C246.578 82.6558 246.667 82.7451 246.8 82.7451H246.875V83.1916H244.455V82.7451H244.53C244.752 82.7153 244.886 82.4772 245.019 82.1796C245.019 82.1796 247.958 75.9737 247.973 75.9588L248.003 75.8844C248.121 75.6612 248.24 75.423 248.24 75.304C248.24 75.2593 248.24 75.1254 247.958 75.0659H247.899V74.6194H250.749V75.0659H250.689C250.496 75.1254 250.422 75.1849 250.422 75.3189C250.422 75.4528 250.496 75.6016 250.645 75.8695L253.955 82.373C254.058 82.5665 254.192 82.6558 254.444 82.7451H254.489V83.1916L254.459 83.1767ZM263.736 83.1767H258.363V82.7302H258.452C258.645 82.7302 258.734 82.6558 258.734 82.5219V75.2742C258.734 75.1403 258.645 75.0659 258.452 75.0659H258.363V74.6194H263.736C266.348 74.6194 267.966 76.2565 267.966 78.9055C267.966 81.5545 266.348 83.1916 263.736 83.1916M276.471 83.2809C273.932 83.2809 271.246 81.748 271.246 78.9055C271.246 76.063 273.932 74.5301 276.471 74.5301C279.009 74.5301 281.695 76.063 281.695 78.9055C281.695 81.748 279.009 83.2809 276.471 83.2809Z" fill="white"></path>
  <path d="M4.31915 53.2783C4.31915 80.2598 26.2118 102.211 53.1212 102.211C80.0305 102.211 101.923 80.2598 101.923 53.2783H4.31915Z" fill="#1A755B"></path>
  <path d="M45.4327 101.586C46.5014 101.765 47.5849 101.884 48.6832 101.988C49.4996 99.6959 50.494 97.4785 51.6072 95.3057C51.0283 94.3979 50.405 93.5049 49.7519 92.612C48.045 95.4843 46.6053 98.4905 45.4327 101.571" fill="#00502F"></path>
  <path d="M39.1395 100.157C40.1488 100.455 41.1729 100.738 42.2119 100.976C43.6516 97.1958 45.5366 93.5645 47.7778 90.1118C47.1841 89.3975 46.5608 88.6831 45.9225 87.9837C43.1767 91.7935 40.8761 95.8712 39.1395 100.142" fill="#00502F"></path>
  <path d="M42.1229 84.1887C38.5013 88.4153 35.4735 93.0288 33.1877 97.925C34.1377 98.3566 35.0876 98.7435 36.0672 99.1156C38.0858 94.4574 40.7426 90.0374 43.9634 85.9597C43.3697 85.3644 42.7611 84.7691 42.1229 84.1887Z" fill="#00502F"></path>
  <path d="M27.9188 95.1569C28.7796 95.6778 29.6553 96.1689 30.531 96.6303C33.0543 91.5852 36.3493 86.8527 40.2974 82.5666C39.7037 82.0606 39.0951 81.5546 38.4718 81.0635C34.2417 85.3198 30.6795 90.0523 27.9188 95.1569Z" fill="#00502F"></path>
  <path d="M23.1987 91.8977C23.9409 92.4781 24.7127 93.0436 25.4993 93.5794C28.4678 88.5194 32.2378 83.8315 36.6608 79.6496C36.082 79.2181 35.4883 78.7865 34.8946 78.3698C30.3231 82.4028 26.3899 86.9568 23.2136 91.8828" fill="#00502F"></path>
  <path d="M31.3621 74.6045C31.3621 74.6045 31.3621 74.6789 31.3621 74.7087C43.3251 81.0485 52.7204 90.6029 57.9153 101.973C58.9691 101.869 59.9932 101.735 61.0322 101.556C55.3624 89.4421 44.8984 79.4115 31.659 73.2205L31.6293 73.28C31.4215 73.7265 31.3621 74.1729 31.3621 74.5897" fill="#00502F"></path>
  <path d="M64.3124 100.901C65.292 100.678 66.2716 100.41 67.2364 100.113C60.6166 86.8973 48.2232 76.3012 32.8019 70.6906L32.3121 71.7919C46.7241 77.7448 58.1973 88.1325 64.3273 100.901" fill="#00502F"></path>
  <path d="M33.7666 68.5177L33.3807 69.3958C40.0895 71.4793 46.2936 74.5004 51.7705 78.2507L50.4495 75.3189C45.3437 72.4169 39.7481 70.1101 33.7666 68.5177Z" fill="#00502F"></path>
  <path d="M70.4869 98.9965C71.4071 98.6393 72.3125 98.2673 73.203 97.8655C68.8691 90.0225 62.4719 83.1916 54.6203 77.8935L53.804 79.7092C60.869 84.9923 66.5982 91.5554 70.4869 98.9965Z" fill="#00502F"></path>
  <path d="M75.9489 96.4963C76.7949 96.0499 77.6113 95.5736 78.4276 95.0825C73.1585 86.6741 65.4553 79.5752 56.1491 74.4706L55.4515 76.0184C64.0898 81.2718 71.1548 88.2962 75.9489 96.4963Z" fill="#00502F"></path>
  <path d="M48.4606 70.8692C44.0524 69.1279 39.3622 67.7885 34.4939 66.9254L34.2119 67.5653C39.5255 68.741 44.5867 70.4673 49.2918 72.6997L48.4755 70.8692H48.4606Z" fill="#00502F"></path>
  <path d="M47.0654 67.7736C43.2064 66.7467 39.1841 66.0175 35.0579 65.6157L34.8946 65.9728C39.288 66.583 43.5181 67.5652 47.5701 68.8898L47.0654 67.7587V67.7736Z" fill="#00502F"></path>
  <path d="M80.9508 93.4305C81.693 92.9097 82.4202 92.3739 83.1327 91.8084C76.9137 83.1767 68.0379 76.1076 57.4998 71.4346L56.9209 72.7145C66.895 77.6703 75.2068 84.8286 80.936 93.4305" fill="#00502F"></path>
  <path d="M73.114 76.3606C68.6613 73.4586 63.7484 71.0328 58.4942 69.1874L58.0192 70.2589C63.036 72.268 67.7114 74.8278 71.9415 77.8191L71.6743 76.822C72.0454 76.7029 72.5797 76.569 73.114 76.3606Z" fill="#00502F"></path>
  <path d="M84.9731 90.3053C85.6262 89.7398 86.2644 89.1594 86.8878 88.5492C83.949 85.0072 80.5352 81.7778 76.7504 78.9204H73.4406C77.8488 82.2391 81.7523 86.0639 84.988 90.3053" fill="#00502F"></path>
  <path d="M82.153 78.9204H79.8821C83.0733 81.3016 85.9972 83.9357 88.5947 86.808C89.1438 86.2276 89.6782 85.6174 90.1977 85.0072C88.0455 82.8195 85.6855 80.7956 83.1772 78.9055H82.1382L82.153 78.9204Z" fill="#00502F"></path>
  <path d="M58.8652 68.3838C64.5202 70.0952 69.8041 72.4615 74.6131 75.3635C74.7615 75.1403 74.8654 74.8873 74.8654 74.5897C74.8654 74.2474 74.8209 73.8902 74.6873 73.533C69.908 70.9882 64.728 68.9642 59.2363 67.5504L58.8652 68.3689V68.3838Z" fill="#00502F"></path>
  <path d="M70.9322 70.2441C71.4813 69.753 72.0305 69.2618 72.5945 68.7856L71.7188 66.8509C70.665 67.6546 69.6409 68.4731 68.6464 69.3363C69.4182 69.6339 70.1752 69.9315 70.9322 70.2441Z" fill="#00502F"></path>
  <path d="M101.908 53.9183C94.2645 55.2428 87.0956 57.7133 80.6837 61.1213L81.3516 62.6095C87.526 58.9634 94.4426 56.2102 101.894 54.5731C101.894 54.3499 101.894 54.1416 101.894 53.9183" fill="#00502F"></path>
  <path d="M70.0564 63.1453C67.83 64.5294 65.7075 66.0325 63.7038 67.6546C64.5053 67.8927 65.2919 68.1606 66.0786 68.4285C67.5925 67.1635 69.1658 65.9581 70.8133 64.827L70.0564 63.1453Z" fill="#00502F"></path>
  <path d="M100.84 53.2635H97.5298C91.1179 54.1713 85.0325 55.8976 79.4072 58.2788L79.9563 59.5289C86.3386 56.478 93.3739 54.3201 100.84 53.2635Z" fill="#00502F"></path>
  <path d="M92.2607 53.2635H88.9657C85.2996 53.8885 81.7523 54.7815 78.3385 55.8976L78.7838 56.9096C83.0584 55.3023 87.5705 54.0671 92.2607 53.2635Z" fill="#00502F"></path>
  <path d="M68.6167 59.9307C65.7521 61.3743 63.036 63.0113 60.4831 64.7972L59.6964 66.5384C60.1268 66.6426 60.5573 66.7616 60.9877 66.8807C63.5554 64.8567 66.331 63.0113 69.255 61.3594L68.6167 59.9307Z" fill="#00502F"></path>
  <path d="M44.2455 61.8505C42.7909 62.6541 41.3957 63.5024 40.0302 64.3953C41.1582 64.44 42.5831 64.4995 43.5776 64.5442C44.097 64.2019 44.6314 63.8596 45.1805 63.5322L44.4681 61.9547L44.2455 61.8505Z" fill="#00502F"></path>
  <path d="M6.44171 67.5652C6.4714 67.6694 6.50108 67.7736 6.53077 67.8778C11.7256 68.0563 16.7721 68.7856 21.581 69.9761L21.9966 69.0534C16.9947 68.0266 11.785 67.5057 6.44171 67.5652Z" fill="#00502F"></path>
  <path d="M13.5364 66.1219C12.9872 66.1666 12.438 66.2262 11.8889 66.2858C15.7331 66.0177 19.503 66.0624 23.1988 66.3752L23.4214 65.8985C20.1858 65.7644 16.8759 65.8389 13.5364 66.1368" fill="#00502F"></path>
  <path d="M35.3845 64.9162L35.2954 65.1097C39.0951 65.2287 42.8057 65.6306 46.4124 66.3003L46.1156 65.6454C42.6276 65.1692 39.0357 64.9013 35.3845 64.9311" fill="#00502F"></path>
  <path d="M19.31 88.5194C19.9631 89.1445 20.631 89.7547 21.3137 90.3351C24.1338 86.2127 27.5179 82.3731 31.3472 78.9055H28.1709C24.8611 81.8522 21.8926 85.0668 19.31 88.5045" fill="#00502F"></path>
  <path d="M21.9817 78.9204C19.7998 80.7956 17.7664 82.76 15.8814 84.8584C16.4157 85.4984 16.9649 86.1085 17.5289 86.7187C19.8147 83.9506 22.3676 81.3462 25.1431 78.9353H21.9817V78.9204Z" fill="#00502F"></path>
  <path d="M22.4567 68.0563L22.7832 67.342C17.722 66.6872 12.4826 66.5532 7.12444 66.9848C6.78306 67.0146 6.60495 67.0444 6.30811 67.0741C6.30811 67.0741 6.30811 67.089 6.30811 67.1039C11.9186 66.8211 17.2173 67.1634 22.4567 68.0563Z" fill="#00502F"></path>
  <path d="M101.908 53.2784C101.908 26.2969 80.0157 4.34564 53.1063 4.34564C26.1969 4.34564 4.31915 26.2969 4.31915 53.2784H101.908Z" fill="#56A0D3"></path>
  <path d="M34.019 42.2209L30.7982 40.3606L28.0227 38.7533L23.8668 41.1345L17.7665 38.6045L13.5661 42.6376L9.51412 41.5512L5.01686 45.0634C4.57159 47.7273 4.33411 50.4656 4.33411 53.2635H25.262L30.0412 51.1055L34.0339 42.206L34.019 42.2209Z" fill="#87B6DE"></path>
  <path d="M81.0102 53.2635H101.908C101.908 48.903 101.33 44.6616 100.261 40.6285L93.8489 42.3251L91.2515 40.2862L86.9917 41.7298L79.9415 37.7413L72.2234 42.206L76.2012 51.0907L81.0102 53.2486V53.2635Z" fill="#87B6DE"></path>
  <path d="M28.4827 40.688L31.3622 44.8848L32.8316 44.8401L33.544 43.2775L28.4827 40.688Z" fill="white"></path>
  <path d="M82.717 41.0005L79.3181 39.5867L74.9841 44.2151L82.717 41.0005Z" fill="white"></path>
  <path d="M93.8934 43.843L90.7765 41.8935L85.73 45.7331L93.8934 43.843Z" fill="white"></path>
  <path d="M21.4029 43.9919L26.4345 43.2775L18.0634 40.1523L21.4029 43.9919Z" fill="white"></path>
  <path d="M53.1063 25.3147L61.7595 44.6169L76.1864 51.1204L60.2604 15.5668C60.0526 15.1203 59.9932 14.6739 59.9932 14.2572C59.9932 12.9922 60.9135 12.3523 61.9079 12.0248L62.7242 9.92645H43.4884L44.3048 12.0248C45.2992 12.3523 46.2194 12.9922 46.2194 14.2572C46.2194 14.6739 46.1452 15.1203 45.9523 15.5668L30.0263 51.1055L44.468 44.602L53.1063 25.3147Z" fill="#B7D0EB"></path>
  <path d="M25.2174 53.2784L28.4085 54.7219L19.9335 73.6372C19.3398 75.1255 17.9297 76.197 16.2526 76.3011L15.2729 78.9204H32.5496L33.2769 76.7923C32.2824 76.4648 31.3622 75.8249 31.3622 74.5599C31.3622 74.1283 31.4364 73.6968 31.6293 73.2503L37.9968 59.0378L44.4532 61.9547L53.0915 81.242V53.2635H25.2026L25.2174 53.2784Z" fill="#B7D0EB"></path>
  <path d="M89.9749 76.3012C88.3126 76.197 86.9025 75.1255 86.294 73.6372L77.8189 54.707L81.0101 53.2635H53.1211L61.7594 61.9398L68.2307 59.0229L74.5981 73.2503C74.7911 73.6968 74.8653 74.1432 74.8653 74.5599C74.8653 76.0184 72.6686 76.4649 71.6742 76.7923L72.2382 78.9204H90.9397L89.9601 76.3012H89.9749Z" fill="#B7D0EB"></path>
  <path d="M59.8151 10.8789H46.4124L53.1211 13.0517L59.8151 10.8789Z" fill="white"></path>
  <path d="M53.1063 53.2784L44.468 44.6169L53.1063 25.3147V53.2784Z" fill="#B7D0EB"></path>
  <path d="M53.1064 53.2783L61.7595 61.9547L53.1064 81.242V53.2783Z" fill="white"></path>
  <path d="M89.5742 77.9382C89.4258 77.5512 89.3664 77.4024 89.2774 77.1494C87.5557 76.822 86.0714 75.6314 85.4183 73.9795C85.4183 73.9795 81.6335 65.5413 76.9581 55.094L72.8022 56.9691L81.2328 75.7654L89.5891 77.9233L89.5742 77.9382Z" fill="white"></path>
  <path d="M81.0101 53.2634L74.9098 50.5102C67.6964 34.4077 59.4291 15.9388 59.4291 15.9388C59.1917 15.4031 59.0729 14.8524 59.0729 14.2423C59.0729 13.5577 59.3104 12.4266 60.572 11.623L53.5218 13.9148L68.6463 47.6826L61.7594 44.5871L53.1211 25.2997V53.2783H81.0101V53.2634Z" fill="white"></path>
  <path d="M25.0095 75.7803L31.8816 77.9382C31.9706 77.6703 32.0003 77.5959 32.1042 77.2983C30.6793 76.4946 30.4122 75.2892 30.4122 74.5599C30.4122 73.9497 30.5309 73.3991 30.7684 72.8633L37.1358 58.6508L33.4252 56.984L25.0095 75.7803Z" fill="white"></path>
  <path d="M53.1212 25.3146L53.1063 14.0637L52.7204 13.9297L37.5811 47.7124L25.2173 53.2932H53.1063L44.468 44.6169L53.1212 25.3146Z" fill="white"></path>
  <path d="M53.1212 0C23.8222 0 0 23.9008 0 53.2783C0 70.4227 8.11883 85.6769 20.7052 95.4397L24.0003 97.8059C32.3714 103.327 42.3752 106.542 53.1063 106.542C63.8374 106.542 73.8412 103.312 82.2124 97.8059L85.5074 95.4397C98.0938 85.6918 106.213 70.4227 106.213 53.2783C106.227 23.9008 82.4053 0 53.1212 0ZM53.1212 104.161C25.1283 104.161 2.35995 81.3313 2.35995 53.2783C2.35995 25.2254 25.1283 2.36627 53.1212 2.36627C81.114 2.36627 103.882 25.2105 103.882 53.2783C103.882 81.3462 81.114 104.176 53.1212 104.176" fill="white"></path>
</svg>
